<svg version="1.1" id="Layer_1" xmlns="http://www.w3.org/2000/svg" xmlns:xlink="http://www.w3.org/1999/xlink" x="0px" y="0px"
	 width="100%" viewBox="0 0 512 624" enable-background="new 0 0 512 624" xml:space="preserve">
<path fill="#fff" opacity="1.000000" stroke="none" 
	d="
M320.853088,134.271027 
	C328.182983,146.478851 331.086975,159.582031 331.121185,173.225174 
	C331.230225,216.714874 331.087219,260.205505 330.937012,303.695435 
	C330.832550,333.949310 318.487518,357.158600 290.845093,370.855133 
	C250.956223,390.619690 200.861938,364.644440 193.572159,320.744873 
	C192.940353,316.940186 192.646530,313.169373 192.647842,309.335510 
	C192.663803,262.346039 192.779388,215.356155 192.618759,168.367233 
	C192.513290,137.514908 215.266785,110.599625 243.102112,103.390305 
	C273.444702,95.531609 304.141724,107.554771 320.853088,134.271027 
M292.770691,225.226959 
	C295.244507,203.158905 275.491028,186.460526 253.210144,192.126236 
	C240.988602,195.234009 233.382782,204.037476 230.933411,216.627487 
	C228.669464,228.264267 232.696533,237.977005 241.193253,245.809860 
	C243.546860,247.979599 244.427444,250.070953 244.379715,253.115356 
	C244.243958,261.773438 244.478928,270.438568 244.270081,279.093719 
	C244.174500,283.054291 245.250565,284.872345 249.580460,284.736389 
	C257.899475,284.475159 266.237213,284.488922 274.557465,284.727417 
	C278.617401,284.843781 279.759125,283.155914 279.691376,279.410187 
	C279.531830,270.586212 279.713989,261.756226 279.575470,252.931534 
	C279.527802,249.893723 280.312805,247.683990 282.720032,245.575577 
	C288.546539,240.472412 292.172211,234.042831 292.770691,225.226959 
z"/>
<path fill="#fff" opacity="1.000000" stroke="none" 
	d="
M243.173218,537.406677 
	C238.256180,537.904968 237.969147,535.088989 237.977554,531.751221 
	C238.029556,511.094116 237.836868,490.434448 238.125809,469.781250 
	C238.200027,464.474731 236.703369,462.242706 231.274307,461.278137 
	C165.895126,449.662201 113.002953,395.655548 102.515717,330.204437 
	C101.538795,324.107483 101.292046,317.974396 100.877007,311.842224 
	C100.679298,308.921051 101.899597,307.610687 104.941788,307.635284 
	C115.602798,307.721527 126.266083,307.752655 136.926208,307.620239 
	C141.729218,307.560577 141.105637,310.910553 141.181229,313.808136 
	C141.697342,333.594238 147.462479,351.789673 158.091629,368.387543 
	C177.106689,398.080475 204.447113,416.376617 238.785583,422.255280 
	C285.660187,430.280121 325.692871,416.058929 356.891693,379.692047 
	C371.675354,362.459503 379.856934,342.066193 381.828125,319.297974 
	C382.836060,307.655518 382.931519,307.660828 394.619263,307.646851 
	C401.782684,307.638275 408.966980,307.974274 416.102570,307.527374 
	C421.369110,307.197540 422.578491,309.200104 422.411774,314.093323 
	C421.709381,334.710144 416.846680,354.304626 407.571106,372.618225 
	C383.402069,420.337189 344.789795,449.613220 292.706299,461.276001 
	C285.325684,462.928711 285.289246,462.805084 285.287628,470.559235 
	C285.283386,490.716736 285.151093,510.875854 285.388000,531.030579 
	C285.444611,535.846252 284.511780,537.762146 279.128510,537.550476 
	C267.319641,537.086243 255.479874,537.407776 243.173218,537.406677 
z"/>
</svg>